<svg width="789" height="735" viewBox="0 0 789 735" fill="none" xmlns="http://www.w3.org/2000/svg">
<path d="M613.378 121.9C692.608 191.24 779.318 263.11 787.768 343.22C796.438 423.54 726.468 512.11 647.208 561.79C567.948 611.47 479.368 622.24 372.828 639.79C266.508 657.54 142.428 682.27 70.6084 632.6C-1.21156 582.93 -20.9216 458.84 23.8884 379.6C68.6984 300.36 178.148 266.07 250.018 196.52C321.888 127.19 356.128 22.7698 409.188 4.15983C462.248 -14.6502 534.118 52.5698 613.378 121.9Z" fill="#F2F2F2"/>
<path d="M727.118 348C727.118 362.064 722.948 375.812 715.134 387.506C707.321 399.2 696.215 408.315 683.221 413.697C670.227 419.079 655.93 420.487 642.136 417.744C628.342 415 615.671 408.227 605.726 398.282C595.781 388.337 589.009 375.667 586.265 361.873C583.521 348.079 584.929 333.781 590.311 320.787C595.694 307.794 604.808 296.688 616.502 288.874C628.196 281.06 641.944 276.89 656.008 276.89C674.868 276.89 692.955 284.382 706.291 297.718C719.627 311.053 727.118 329.14 727.118 348Z" fill="white"/>
<path d="M436.228 218.66L434.678 226.12L424.278 229.36C424.278 229.36 419.128 213.3 418.418 209.67C413.418 213.4 384.598 221.48 379.628 222.2C378.938 218.33 378.938 184.79 406.898 184.79C431.528 184.79 442.568 209.46 443.218 212.35C441.778 213.19 436.218 215.25 436.218 218.66" fill="#EECB55"/>
<path d="M443.139 283.23C436.889 283.23 391.529 329 389.669 338.58L375.059 414.17L450.729 393L455.169 296.72L444.389 283.2L443.139 283.23Z" fill="#46DBC9"/>
<path d="M349.668 416.13C349.538 410.86 392.978 273.72 397.878 269.06C399.487 267.436 401.42 266.169 403.552 265.342C405.683 264.514 407.965 264.146 410.248 264.26C412.408 264.36 422.788 269.26 424.978 274.43C421.238 283.29 412.228 288.21 412.228 288.21L394.698 396.53L349.668 416.13Z" fill="white"/>
<path d="M402.608 498.37L465.388 576.08L434.938 606.69L342.778 526.12L364.578 496.12L402.608 498.37Z" fill="#3C3744"/>
<path d="M386.068 637.47C377.608 629.78 278.358 506.15 278.358 490.85C278.358 456.74 317.058 444.65 327.618 441.99C342.168 440.67 406.708 435.27 416.858 435.69C424.178 443.62 509.178 461.92 521.498 460.34C521.498 466.51 511.698 509.65 442.178 509.65C434.898 509.65 380.088 507.46 379.068 507.46C379.068 520.29 414.198 603.8 417.548 609.46" fill="#3C3744"/>
<path d="M476.009 260.87C532.279 260.87 544.459 362.38 544.459 391.19C544.459 427.92 529.559 457.27 522.459 460.02C502.349 467.75 428.529 442.43 423.849 430.44C401.029 372.04 438.589 260.87 476.049 260.87" fill="#46DBC9"/>
<path d="M427.968 191.38C432.638 195.577 436.495 200.597 439.348 206.19C439.842 207.15 440.302 208.11 440.728 209.07" stroke="#1B3C87" stroke-width="3.69" stroke-linecap="round" stroke-linejoin="round"/>
<path d="M381.429 236C370.919 215.58 375.369 192.36 391.369 184.13C396.572 181.499 402.483 180.612 408.229 181.6" stroke="#1B3C87" stroke-width="3.69" stroke-linecap="round" stroke-linejoin="round"/>
<path d="M436.978 252.18C434.836 254.587 432.27 256.58 429.408 258.06C418.488 263.68 405.008 260.86 394.218 252.01" stroke="#1B3C87" stroke-width="3.69" stroke-linecap="round" stroke-linejoin="round"/>
<path d="M432.658 215.08C433.301 213.462 434.372 212.049 435.756 210.994C437.141 209.938 438.787 209.279 440.517 209.088C442.248 208.897 443.997 209.18 445.579 209.908C447.161 210.635 448.514 211.78 449.495 213.218C450.476 214.657 451.046 216.335 451.145 218.074C451.245 219.812 450.869 221.544 450.058 223.085C449.247 224.626 448.033 225.917 446.544 226.82C445.055 227.722 443.349 228.203 441.608 228.21C440.16 228.201 438.733 227.859 437.438 227.21" stroke="#1B3C87" stroke-width="3.69" stroke-linecap="round" stroke-linejoin="round"/>
<path d="M440.758 285.18C439.348 280.13 434.278 264.57 427.948 258.75" stroke="#1B3C87" stroke-width="3.69" stroke-linecap="round" stroke-linejoin="round"/>
<path d="M445.809 230.61C447.759 237.17 465.389 260.82 469.729 264.1C469.469 266.95 463.859 272.46 457.549 277.1" stroke="#1B3C87" stroke-width="3.69" stroke-linecap="round" stroke-linejoin="round"/>
<path d="M423.278 225L431.108 222.57L432.658 215.1" stroke="#1B3C87" stroke-width="3.69" stroke-linecap="round" stroke-linejoin="round"/>
<path d="M402.218 211.32C408.038 209.38 413.008 207.45 414.848 206.09C415.358 208.73 418.228 217.95 419.748 222.77" stroke="#1B3C87" stroke-width="3.69" stroke-linecap="round" stroke-linejoin="round"/>
<path d="M376.048 218.62C377.968 218.34 383.418 216.97 389.688 215.18" stroke="#1B3C87" stroke-width="3.69" stroke-linecap="round" stroke-linejoin="round"/>
<path d="M433.358 436.2C425.458 432.26 419.968 428.43 418.798 425.43C411.798 407.43 410.468 384.38 413.148 361.13" stroke="#1B3C87" stroke-width="3.69" stroke-linecap="round" stroke-linejoin="round"/>
<path d="M531.658 328.27C537.518 351.77 539.448 374.72 539.448 386.18C539.448 422.92 524.548 452.27 517.448 455.01C508.018 458.64 486.798 455.01 466.448 448.87" stroke="#1B3C87" stroke-width="3.69" stroke-linecap="round" stroke-linejoin="round"/>
<path d="M463.528 257.3C465.913 256.368 468.448 255.88 471.008 255.86C485.838 255.86 497.608 262.92 506.898 273.86" stroke="#1B3C87" stroke-width="3.69" stroke-linecap="round" stroke-linejoin="round"/>
<path d="M424.369 312.59C428.203 301.446 433.232 290.751 439.369 280.69" stroke="#1B3C87" stroke-width="3.69" stroke-linecap="round" stroke-linejoin="round"/>
<path d="M389.378 271.49C391.038 267.29 392.258 264.64 392.868 264.05C394.477 262.426 396.41 261.159 398.542 260.332C400.673 259.504 402.955 259.136 405.238 259.25C407.398 259.35 417.778 264.25 419.968 269.42" stroke="#1B3C87" stroke-width="3.69" stroke-linecap="round" stroke-linejoin="round"/>
<path d="M356.908 368.3C364.278 344.74 373.638 315.93 381.018 294.55" stroke="#1B3C87" stroke-width="3.69" stroke-linecap="round" stroke-linejoin="round"/>
<path d="M344.658 410.41C344.658 409.41 346.128 403.88 348.598 395.49" stroke="#1B3C87" stroke-width="3.69" stroke-linecap="round" stroke-linejoin="round"/>
<path d="M406.918 268.3C409.058 268.64 414.228 271.79 416.918 274.94" stroke="#1B3C87" stroke-width="3.69" stroke-linecap="round" stroke-linejoin="round"/>
<path d="M400.928 275.89C403.058 276.23 408.238 279.38 410.928 282.53" stroke="#1B3C87" stroke-width="3.69" stroke-linecap="round" stroke-linejoin="round"/>
<path d="M389.698 390.94C389.868 386.14 401.698 303.36 406.928 287.09" stroke="#1B3C87" stroke-width="3.69" stroke-linecap="round" stroke-linejoin="round"/>
<path d="M415.108 297.12C422.388 289.33 431.208 280.96 438.288 277.57" stroke="#1B3C87" stroke-width="3.69" stroke-linecap="round" stroke-linejoin="round"/>
<path d="M185.519 339L231.519 413.76" stroke="#1B3C87" stroke-width="3.69" stroke-linecap="round" stroke-linejoin="round"/>
<path d="M516.489 455.33C516.489 461.5 506.699 504.64 437.169 504.64C429.889 504.64 375.079 502.45 374.059 502.45C374.059 515.28 409.189 598.79 412.539 604.45" stroke="#1B3C87" stroke-width="3.69" stroke-linecap="round" stroke-linejoin="round"/>
<path d="M322.608 437C312.398 440.82 273.338 451.75 273.338 485.86C273.338 501.16 372.568 624.79 381.048 632.48" stroke="#1B3C87" stroke-width="3.69" stroke-linecap="round" stroke-linejoin="round"/>
<path d="M376.099 638L421.609 609" stroke="#1B3C87" stroke-width="3.69" stroke-linecap="round" stroke-linejoin="round"/>
<path d="M381.059 646L427.989 617.57" stroke="#1B3C87" stroke-width="3.69" stroke-linecap="round" stroke-linejoin="round"/>
<path d="M399.829 575.33L428.989 601.68" stroke="#1B3C87" stroke-width="3.69" stroke-linecap="round" stroke-linejoin="round"/>
<path d="M416.938 517.17L460.339 571.08" stroke="#1B3C87" stroke-width="3.69" stroke-linecap="round" stroke-linejoin="round"/>
<path d="M465.369 567.21L427.019 604.48" stroke="#1B3C87" stroke-width="3.69" stroke-linecap="round" stroke-linejoin="round"/>
<path d="M470.208 574.4L431.858 611.67" stroke="#1B3C87" stroke-width="3.69" stroke-linecap="round" stroke-linejoin="round"/>
<path d="M164.718 437V638" stroke="#1B3C87" stroke-width="3.69" stroke-linecap="round" stroke-linejoin="round"/>
<path d="M317.758 437V732.66" stroke="#1B3C87" stroke-width="3.69" stroke-linecap="round" stroke-linejoin="round"/>
<path d="M495.728 285.43C522.518 294.75 508.878 352.13 501.338 354.07C493.798 356.01 448.338 338.02 446.918 333.18C445.498 328.34 464.438 274.53 495.728 285.43Z" fill="#46DBC9"/>
<path d="M461.718 288.88C469.468 281.11 479.268 276.43 490.718 280.42C517.508 289.74 503.868 347.12 496.318 349.06C488.768 351 443.318 333.01 441.898 328.17C441.558 327.03 442.348 323.17 444.178 318.05" stroke="#1B3C87" stroke-width="3.69" stroke-linecap="round" stroke-linejoin="round"/>
<path d="M450.048 336C447.868 339.2 435.798 378.23 435.798 378.23C435.798 378.23 350.528 415 346.278 416.9C344.728 414.78 339.628 410.9 329.278 410.9C310.328 410.9 307.048 423.47 307.048 426.17C307.048 428.87 335.858 434.87 343.588 434.68C351.318 434.49 459.408 418.05 463.268 416.12C467.128 414.19 492.998 353.12 492.998 353.12C485.998 352.75 453.728 342.76 450.068 336.01" fill="white"/>
<path d="M396.289 421.6C369.009 425.77 342.289 429.6 338.559 429.68C330.829 429.88 302.019 423.88 302.019 421.17C302.019 418.46 305.299 405.9 324.249 405.9C334.619 405.9 339.719 409.77 341.249 411.9C345.499 409.97 430.769 373.23 430.769 373.23C430.769 373.23 442.839 334.23 445.019 331" stroke="#1B3C87" stroke-width="3.69" stroke-linecap="round" stroke-linejoin="round"/>
<path d="M487.968 348.1C487.968 348.1 462.108 409.19 458.238 411.1C457.138 411.65 447.608 413.38 434.358 415.56" stroke="#1B3C87" stroke-width="3.69" stroke-linecap="round" stroke-linejoin="round"/>
<path d="M578.468 506.86H413.438V522.17H578.468V506.86Z" fill="#8088DC"/>
<path d="M511.698 517.17H408.418V501.86H573.418V517.17H544.418" stroke="#1B3C87" stroke-width="3.69" stroke-linecap="round" stroke-linejoin="round"/>
<path d="M371.078 428.67H119.988V441.27H371.078V428.67Z" fill="#8088DC"/>
<path d="M185.518 424.38H366.788V437H115.698V424.4H154.338" stroke="#1B3C87" stroke-width="3.69" stroke-linecap="round" stroke-linejoin="round"/>
<path d="M324.259 418.07H235.829V428.67H324.259V418.07Z" fill="#FB5D64"/>
<path d="M319.969 413.78H231.539V424.38H319.969V413.78Z" stroke="#1B3C87" stroke-width="3.69" stroke-linecap="round" stroke-linejoin="round"/>
<path d="M389.678 648.83L418.678 680.54L402.818 724.54L451.468 686.71L423.268 628.54" fill="white"/>
<path d="M435.128 658.32L418.238 623.5" stroke="#1B3C87" stroke-width="3.69" stroke-linecap="round" stroke-linejoin="round"/>
<path d="M384.678 643.82L413.678 675.53L397.828 719.53L446.468 681.7L441.508 671.5" stroke="#1B3C87" stroke-width="3.69" stroke-linecap="round" stroke-linejoin="round"/>
<path d="M469.138 585.31L485.288 612.73L496.438 618.53L475.218 667.81L470.378 636.81L442.378 611.28" fill="white"/>
<path d="M444.608 612.8L437.458 606.27" stroke="#1B3C87" stroke-width="3.69" stroke-linecap="round" stroke-linejoin="round"/>
<path d="M464.129 580.31L480.279 607.72L491.429 613.53L470.209 662.81L465.369 631.81L459.369 626.33" stroke="#1B3C87" stroke-width="3.69" stroke-linecap="round" stroke-linejoin="round"/>
<path d="M451.039 517.17V731.17" stroke="#1B3C87" stroke-width="3.69" stroke-linecap="round" stroke-linejoin="round"/>
<path d="M530.849 598.85V731.2" stroke="#1B3C87" stroke-width="3.69" stroke-linecap="round" stroke-linejoin="round"/>
<path d="M530.849 517.17V562.25" stroke="#1B3C87" stroke-width="3.69" stroke-linecap="round" stroke-linejoin="round"/>
<path d="M402.818 222.51C403.308 224.21 404.448 225.37 405.368 225.1C406.288 224.83 406.648 223.25 406.158 221.56C405.668 219.87 404.538 218.7 403.608 219C402.678 219.3 402.338 220.85 402.818 222.54" fill="#1B3C87"/>
<path d="M391.719 241.2C391.598 241.831 391.403 242.445 391.139 243.03" stroke="#1B3C87" stroke-width="3.14" stroke-linecap="round" stroke-linejoin="round"/>
<path d="M390.658 231.29C391.453 233.497 391.891 235.815 391.958 238.16" stroke="#1B3C87" stroke-width="3.14" stroke-linecap="round" stroke-linejoin="round"/>
<path d="M418.018 240.24C418.308 242.48 416.738 245.96 413.708 247.99" stroke="#1B3C87" stroke-width="3.14" stroke-linecap="round" stroke-linejoin="round"/>
</svg>
